PathFileType	4	(X/Y/Z)	OpenSim_Sub04_CSBaseline_Accel.trc
DataRate	CameraRate	NumFrames	NumMarkers	Units	OrigDataRate	OrigDataStartFrame	OrigNumFrames
100	100	37	8	m	100	7073	8083
Frame#	Time	torso_imu_offset_imu	pelvis_imu_offset_imu	tibia_r_imu_offset_imu	femur_r_imu_offset_imu	tibia_l_imu_offset_imu	femur_l_imu_offset_imu	toes_r_imu_offset_imu	toes_l_imu_offset_imu
				X1	Y1	Z1	X2	Y2	Z2	X3	Y3	Z3	X4	Y4	Z4	X5	Y5	Z5	X6	Y6	Z6	X7	Y7	Z7	X8		Y8	Z8	

7073	70.72000000	-7.12173507	-0.56058797	8.41285160	8.79070936	-1.04445655	3.07697069	4.24727705	8.22103564	1.42364345	7.60799524	0.30004142	2.19488372	9.56844199	-2.33001654	-0.02782689	9.48472681	0.93096544	-1.72883880	9.20220074	0.62619152	8.66228050	5.65684211	1.95684571	10.40202351
7074	70.73000000	-7.04234193	-0.48241604	8.25143502	9.10197258	-1.22796383	2.97781703	4.57425881	8.25782696	1.38006160	7.30127347	0.38195702	2.19123516	9.73916008	-2.16045659	0.02332440	9.46824519	0.94585528	-1.62498539	9.71355412	0.35795968	8.63174743	5.46146704	1.87511068	10.74024871
7075	70.74000000	-7.18242320	-0.51965850	8.15716527	9.44534122	-1.26308049	2.88322849	5.16371092	8.60188847	0.88488389	7.22268430	0.36448481	2.24129650	9.82968766	-2.05668076	0.00300444	9.53225430	0.98776515	-1.61675470	11.19371841	0.31718822	9.58526563	5.14063757	1.87103413	10.89142146
7076	70.75000000	-7.29709958	-0.51041899	8.19753789	9.75772030	-1.35361281	2.81446040	5.70578555	8.67716254	0.08814648	7.24245928	0.35766991	2.37061683	9.76917781	-1.80111432	0.13990047	9.53662661	0.83208001	-1.53985652	13.97619926	0.93162128	11.19677253	5.37552023	1.98581097	10.64128035
7077	70.76000000	-7.44944944	-0.45897651	8.23800905	9.88406240	-1.38679057	2.74356118	6.43780345	8.11629256	0.10563544	7.24117978	0.34724571	2.52671035	9.76992800	-1.48615991	0.03212829	9.63462295	0.78920370	-1.64915838	16.15150139	1.22502700	11.61978930	5.41948429	2.06938244	10.78739590
7078	70.77000000	-7.54868165	-0.52290058	8.35354623	9.87341849	-1.45792652	2.72980956	7.61563417	7.00005070	0.54998323	7.28568497	0.16795264	2.67145198	10.02162235	-1.54415892	-0.04216492	9.79207422	0.88179278	-1.75327036	16.48269221	0.23650529	10.59385044	5.63840709	2.13872063	10.65904042
7079	70.78000000	-7.69129403	-0.60020803	8.48707346	9.68872428	-1.36694505	2.66249922	8.67724265	5.74445649	0.64303342	7.45665363	-0.29592838	2.80861677	10.15275021	-1.72281029	-0.18185654	10.08590218	0.82453876	-1.93652525	16.72808067	-0.59422492	8.95884621	5.25590466	2.09120674	11.02899435
7080	70.79000000	-7.71587783	-0.69301454	8.53740223	9.44067837	-1.31471142	2.55511666	9.23457416	4.33528323	1.08113050	7.61133717	-1.05797299	2.93874725	10.20561436	-1.92042722	-0.07536192	10.16030977	0.88620700	-2.17585381	17.78166795	-0.45159293	7.62307592	5.22999818	2.08141898	11.01517456
7081	70.80000000	-7.59833832	-0.72102321	8.48922019	9.09080087	-1.25929938	2.58364118	9.40159807	2.84733541	1.82287249	7.69185396	-2.03962446	3.05853910	10.11110947	-1.92811951	-0.20441616	10.32387763	1.05327108	-2.33872090	18.70166057	-0.00810627	6.25018456	5.76863969	2.14126447	10.67269538
7082	70.81000000	-7.50804082	-0.71148975	8.48132089	8.81002494	-1.30192885	2.62809960	9.82815108	1.59488337	2.18475895	7.78054682	-3.17846576	3.20943562	10.05275979	-2.09255849	-0.32711114	10.05747568	1.12091839	-2.49916785	19.63889353	0.50545043	5.34508764	5.70505855	1.99972090	10.70611023
7083	70.82000000	-7.57915431	-0.67843522	8.36323000	8.64017229	-1.40055573	2.62389983	10.70816062	0.87767180	2.54731022	7.83538386	-4.38945952	3.24071925	10.21135560	-2.39970244	-0.27745720	9.99460400	1.15871209	-2.52847341	21.59587129	1.15488082	4.83838320	5.17426043	1.31649859	11.10305411
7084	70.83000000	-7.78401962	-0.63483876	8.36353327	8.58260118	-1.46384348	2.63664426	11.56337180	0.52359366	3.38200245	8.09457153	-5.45047938	3.22088438	10.27256551	-2.74449167	-0.00978172	9.82434492	1.37371776	-2.49020555	21.91861721	1.40539786	3.57446645	5.20496743	1.76489365	11.31722485
7085	70.84000000	-8.04650881	-0.63672289	8.46054152	8.60292635	-1.49389859	2.74846394	12.13359870	0.32577845	3.43660501	8.40800983	-6.23104680	3.05184989	10.32623435	-2.69273686	0.10477623	9.80749242	1.71284721	-2.40140095	20.69947976	1.38609164	1.38448584	5.48016626	1.44519513	10.94871150
7086	70.85000000	-8.18686180	-0.70869279	8.48491737	8.65390828	-1.51458133	2.81178853	12.26294207	-0.22586715	3.09882510	8.68426254	-6.40587637	2.83954101	10.37826439	-2.56497536	0.07308549	10.03416732	1.86193607	-2.28144907	19.38285323	1.39803095	-1.57028282	5.57300474	1.24590705	11.10732531
7087	70.86000000	-8.18558202	-0.76471851	8.50502284	8.82795649	-1.40202974	2.83182805	11.50445168	-1.19104075	3.48694912	9.13248472	-6.07860954	2.56798865	10.72895267	-2.73542910	0.16669670	10.26425509	1.69341767	-2.17769565	18.75401208	1.43792809	-4.32449569	6.14566296	1.36034860	10.70939313
7088	70.87000000	-8.20324607	-0.81256579	8.54448865	9.06453991	-1.22516129	2.83772741	10.12008294	-1.23630791	3.87308226	9.54850657	-5.70246140	2.35051154	10.80175733	-2.88091668	0.18174303	10.10848761	1.37781712	-2.15255241	18.87833944	2.76737544	-6.18008324	6.00862735	1.30485006	10.93624123
7089	70.88000000	-8.31843817	-0.91936877	8.62058299	9.34996666	-1.15542559	2.78249093	8.59651390	-0.76638487	3.20529794	9.80724491	-5.69724134	2.57342758	10.76986098	-2.86604651	0.29524630	10.43612700	1.18139138	-2.16407849	18.72513212	5.20249202	-7.71233251	5.63310009	1.16223662	10.97739293
7090	70.89000000	-8.37803535	-0.93653429	8.70430850	9.58020014	-1.10095679	2.71779349	7.93124387	-1.05827073	2.62256916	9.88804734	-6.11877332	2.99440380	10.57610087	-2.36506608	0.49186157	9.96226296	0.79479193	-2.34767187	17.74302084	6.94792306	-8.49429807	6.09632939	1.55810933	10.63180544
7091	70.90000000	-8.32326900	-0.88335860	8.79606641	9.87132332	-1.20609268	2.60036869	8.13447477	-1.34204532	2.17134869	9.54592295	-6.86159235	3.38123713	10.21830801	-1.56442870	0.39935443	10.18998101	0.80816167	-2.58383631	17.56442952	7.40463923	-8.68068746	5.93041199	2.00845774	10.63666857
7092	70.91000000	-8.26325389	-0.76949101	8.88988595	10.14387253	-1.38225196	2.39156153	8.39257220	-0.59461404	2.00884937	8.87335879	-7.41201747	3.57611997	10.18345472	-0.54456093	0.11886524	9.80011151	0.73675576	-2.90337344	15.66666565	5.49855118	-6.86177546	5.86592673	2.44612866	10.68353998
7093	70.92000000	-8.19651929	-0.72426555	8.92632304	10.31237608	-1.54142247	2.28908351	8.36586732	1.64697927	2.30987987	8.42699046	-7.11248327	3.49858067	10.33844806	0.11509035	0.13841348	9.79725736	0.79206571	-3.18171161	13.87833160	4.08412302	-7.66510206	5.71076720	2.64311231	10.63949211
7094	70.93000000	-8.10088286	-0.67275332	8.94533439	10.43603508	-1.76391910	2.15877222	8.38951056	3.11540131	1.44040475	8.17311157	-5.95641880	3.39632170	10.35432734	0.14638384	0.09727555	9.68775521	1.01815077	-3.35071223	8.10626457	2.83113210	5.08777621	6.13095572	2.74981381	10.35934813
7095	70.94000000	-8.14437450	-0.66350799	8.99195604	10.46486636	-2.01369890	2.09513207	8.95860733	3.74398445	1.60701311	8.29984355	-4.27777289	3.41868135	10.30138014	-0.09699990	0.18191675	9.77791266	1.37766306	-3.46348281	6.54052845	-4.88067775	15.43880568	6.35939757	2.56376558	10.31204638
7096	70.95000000	-8.31663386	-0.67499216	9.11318233	10.46972865	-2.06302059	2.24037082	10.04905864	2.49932957	2.17206415	8.74502069	-2.61178620	3.32770244	10.36228850	-0.47003232	0.29903791	9.59692682	1.57815723	-3.33919954	-1.25921612	-5.19090698	13.78943140	6.45354864	2.70326359	10.21671747
7097	70.96000000	-8.53630565	-0.68658019	9.18750267	10.41504065	-1.81245705	2.20681343	12.02171332	-0.87144083	3.15824592	8.97954244	-1.32783584	2.83679480	10.52357105	-0.62281443	0.35016017	9.69132395	1.53626608	-3.02364691	-0.82581915	3.02114068	10.12391040	5.95445430	3.08749460	10.43326678
7098	70.97000000	-8.30698471	-0.65930594	9.26214755	10.30733052	-1.47726862	2.14304148	11.40722715	-4.11193345	4.21502633	9.10494761	-0.29495841	2.48621587	10.59021030	-0.87762437	0.69019830	9.70604678	1.61367651	-2.64305799	5.71036018	2.57661363	9.34251565	5.68385237	3.50612378	10.71241687
7099	70.98000000	-7.81382930	-0.54267196	9.02188324	10.04678037	-1.19132757	2.45527500	8.49771622	-4.19916807	4.98912692	9.37414918	0.37949944	2.82620385	10.48080915	-1.16042789	0.90741851	9.83085868	1.89204230	-2.21302314	9.01234522	-0.07077251	9.47299012	6.35443186	3.34803168	10.18397429
7100	70.99000000	-7.79214532	-0.27710526	8.89604794	9.86057864	-0.91895140	2.85064262	8.46951877	-0.80840827	4.19257069	10.15603746	0.23183389	3.33098262	10.76052450	-1.64663381	0.97831293	10.04229636	2.06039138	-1.67802991	7.63768613	0.39139849	8.86789933	6.44654890	3.15970852	10.44842826
7101	71	-8.29339803	-0.15429823	9.01062937	9.74643865	-0.54672644	3.30766526	11.14153531	1.62604681	3.18641205	11.07481640	-1.21654412	3.34653414	11.17516454	-2.18850824	1.10757550	10.39645466	2.47431142	-1.50217098	8.82536074	-0.95614108	9.19434054	6.35234690	2.86584133	10.53293238
7102	71.01000000	-8.75721101	-0.12857897	9.05775371	9.81600894	-0.15653078	3.89403352	12.50929925	1.67517282	2.46006367	11.90423956	-3.32481768	2.97555122	11.47838264	-2.26626629	1.52262045	10.76382987	2.70035974	-1.36787772	9.91292445	-1.79140933	9.56819149	6.44251464	2.89784529	10.71710082
7103	71.02000000	-9.01401516	-0.03264025	9.23792306	9.92492717	0.40792428	4.37096577	12.11420107	0.46558876	2.12647523	12.49425337	-5.40221344	2.50754674	11.63555110	-1.77376465	1.86199976	10.71377273	2.92778181	-1.27005422	13.04305544	-10.28970607	8.69811136	6.75877315	3.11025396	10.48714411
7104	71.03000000	-9.18468078	0.10360397	9.25610706	10.11159548	0.85308670	4.93626342	11.87896862	-1.58282811	1.70153704	12.34744843	-6.21658841	1.64335331	11.72017214	-1.29418622	2.01782013	10.46778471	3.01253137	-1.15903419	18.21923780	-2.80518685	9.83565417	7.02968970	3.36280358	10.39869922
7105	71.04000000	-9.34790250	0.27523290	9.27563570	10.42432364	1.40305926	5.07623913	12.04689031	-1.80918335	1.32367178	11.89821305	-5.85722574	0.35778819	12.10762552	-0.81029825	2.08998735	10.30385816	2.98852371	-0.97378706	8.25773647	4.07585706	10.91688202	7.53807464	4.23385269	11.15095016
7106	71.05000000	-9.49581971	0.35317248	9.30433467	10.49931175	1.95259792	4.80028907	11.48729738	0.79470147	1.83987571	11.20544894	-4.00363660	-0.51132679	12.59414778	-0.20502951	1.87535726	10.13924455	2.61142759	-0.76961448	8.04065131	-0.19611292	10.07388281	6.77543374	4.24562735	11.22088653
7107	71.06000000	-9.00464352	0.50062876	9.35408709	10.36712677	2.21093801	4.37978330	9.93050579	4.51485216	1.72365059	10.61592171	-1.22928464	-0.32895854	12.52130847	-0.17634013	2.20178815	10.14996715	1.94018376	-0.55768676	6.29779110	-1.37180398	8.57208775	8.32660553	3.76190632	10.53901840
7108	71.07000000	-8.22579056	0.81912194	9.19576160	9.89570799	2.20298232	4.21840439	8.61162650	6.98688141	0.97556959	9.92696577	1.29697205	0.52189363	11.94393159	-0.62818367	2.05634726	10.39453499	1.14991191	-0.22025431	6.57614425	0.01515893	8.61992649	9.05296512	2.76323538	10.30471131
7109	71.08000000	-7.80789443	0.65573207	8.87392827	9.32496392	2.04586230	4.28593236	8.13059447	6.78138226	1.68370040	8.94613097	2.82554455	1.53953179	11.54216287	-1.36043645	1.70522561	10.67285599	0.50434183	-0.08257597	6.20019411	-0.87767055	8.42073558	8.93163407	4.48317064	10.51890040
